<mxfile host="Electron" agent="Mozilla/5.0 (Windows NT 10.0; Win64; x64) AppleWebKit/537.36 (KHTML, like Gecko) draw.io/28.2.5 Chrome/138.0.7204.251 Electron/37.6.1 Safari/537.36" version="28.2.5">
  <diagram name="Page-1" id="0NWcxCbCANdPeWvaRJ3x">
    <mxGraphModel dx="1696" dy="874" grid="1" gridSize="10" guides="1" tooltips="1" connect="1" arrows="1" fold="1" page="0" pageScale="1" pageWidth="850" pageHeight="1100" math="0" shadow="0">
      <root>
        <mxCell id="0" />
        <mxCell id="1" parent="0" />
        <mxCell id="-ewRZKTb8vtjLKapeMIc-1" value="gold.dim_customers" style="shape=table;startSize=40;container=1;collapsible=1;childLayout=tableLayout;fixedRows=1;rowLines=0;fontStyle=1;align=center;resizeLast=1;html=1;fontSize=16;swimlaneLine=1;swimlaneFillColor=none;fillColor=#fff2cc;strokeColor=#d6b656;rounded=1;" vertex="1" parent="1">
          <mxGeometry x="-30" y="140" width="210" height="390" as="geometry" />
        </mxCell>
        <mxCell id="-ewRZKTb8vtjLKapeMIc-2" value="" style="shape=tableRow;horizontal=0;startSize=0;swimlaneHead=0;swimlaneBody=0;fillColor=none;collapsible=0;dropTarget=0;points=[[0,0.5],[1,0.5]];portConstraint=eastwest;top=0;left=0;right=0;bottom=1;fontSize=16;swimlaneLine=1;swimlaneFillColor=none;" vertex="1" parent="-ewRZKTb8vtjLKapeMIc-1">
          <mxGeometry y="40" width="210" height="35" as="geometry" />
        </mxCell>
        <mxCell id="-ewRZKTb8vtjLKapeMIc-3" value="PK" style="shape=partialRectangle;connectable=0;fillColor=none;top=0;left=0;bottom=0;right=0;fontStyle=1;overflow=hidden;whiteSpace=wrap;html=1;fontSize=16;swimlaneLine=1;swimlaneFillColor=none;" vertex="1" parent="-ewRZKTb8vtjLKapeMIc-2">
          <mxGeometry width="30" height="35" as="geometry">
            <mxRectangle width="30" height="35" as="alternateBounds" />
          </mxGeometry>
        </mxCell>
        <mxCell id="-ewRZKTb8vtjLKapeMIc-4" value="customer_key" style="shape=partialRectangle;connectable=0;fillColor=none;top=0;left=0;bottom=0;right=0;align=left;spacingLeft=6;fontStyle=5;overflow=hidden;whiteSpace=wrap;html=1;fontSize=16;swimlaneLine=1;swimlaneFillColor=none;" vertex="1" parent="-ewRZKTb8vtjLKapeMIc-2">
          <mxGeometry x="30" width="180" height="35" as="geometry">
            <mxRectangle width="180" height="35" as="alternateBounds" />
          </mxGeometry>
        </mxCell>
        <mxCell id="-ewRZKTb8vtjLKapeMIc-5" value="" style="shape=tableRow;horizontal=0;startSize=0;swimlaneHead=0;swimlaneBody=0;fillColor=none;collapsible=0;dropTarget=0;points=[[0,0.5],[1,0.5]];portConstraint=eastwest;top=0;left=0;right=0;bottom=0;fontSize=16;swimlaneLine=1;swimlaneFillColor=none;" vertex="1" parent="-ewRZKTb8vtjLKapeMIc-1">
          <mxGeometry y="75" width="210" height="35" as="geometry" />
        </mxCell>
        <mxCell id="-ewRZKTb8vtjLKapeMIc-6" value="" style="shape=partialRectangle;connectable=0;fillColor=none;top=0;left=0;bottom=0;right=0;editable=1;overflow=hidden;whiteSpace=wrap;html=1;fontSize=16;swimlaneLine=1;swimlaneFillColor=none;" vertex="1" parent="-ewRZKTb8vtjLKapeMIc-5">
          <mxGeometry width="30" height="35" as="geometry">
            <mxRectangle width="30" height="35" as="alternateBounds" />
          </mxGeometry>
        </mxCell>
        <mxCell id="-ewRZKTb8vtjLKapeMIc-7" value="customer_id" style="shape=partialRectangle;connectable=0;fillColor=none;top=0;left=0;bottom=0;right=0;align=left;spacingLeft=6;overflow=hidden;whiteSpace=wrap;html=1;fontSize=16;swimlaneLine=1;swimlaneFillColor=none;" vertex="1" parent="-ewRZKTb8vtjLKapeMIc-5">
          <mxGeometry x="30" width="180" height="35" as="geometry">
            <mxRectangle width="180" height="35" as="alternateBounds" />
          </mxGeometry>
        </mxCell>
        <mxCell id="-ewRZKTb8vtjLKapeMIc-8" value="" style="shape=tableRow;horizontal=0;startSize=0;swimlaneHead=0;swimlaneBody=0;fillColor=none;collapsible=0;dropTarget=0;points=[[0,0.5],[1,0.5]];portConstraint=eastwest;top=0;left=0;right=0;bottom=0;fontSize=16;swimlaneLine=1;swimlaneFillColor=none;" vertex="1" parent="-ewRZKTb8vtjLKapeMIc-1">
          <mxGeometry y="110" width="210" height="35" as="geometry" />
        </mxCell>
        <mxCell id="-ewRZKTb8vtjLKapeMIc-9" value="" style="shape=partialRectangle;connectable=0;fillColor=none;top=0;left=0;bottom=0;right=0;editable=1;overflow=hidden;whiteSpace=wrap;html=1;fontSize=16;swimlaneLine=1;swimlaneFillColor=none;" vertex="1" parent="-ewRZKTb8vtjLKapeMIc-8">
          <mxGeometry width="30" height="35" as="geometry">
            <mxRectangle width="30" height="35" as="alternateBounds" />
          </mxGeometry>
        </mxCell>
        <mxCell id="-ewRZKTb8vtjLKapeMIc-10" value="customer_number" style="shape=partialRectangle;connectable=0;fillColor=none;top=0;left=0;bottom=0;right=0;align=left;spacingLeft=6;overflow=hidden;whiteSpace=wrap;html=1;fontSize=16;swimlaneLine=1;swimlaneFillColor=none;" vertex="1" parent="-ewRZKTb8vtjLKapeMIc-8">
          <mxGeometry x="30" width="180" height="35" as="geometry">
            <mxRectangle width="180" height="35" as="alternateBounds" />
          </mxGeometry>
        </mxCell>
        <mxCell id="-ewRZKTb8vtjLKapeMIc-11" value="" style="shape=tableRow;horizontal=0;startSize=0;swimlaneHead=0;swimlaneBody=0;fillColor=none;collapsible=0;dropTarget=0;points=[[0,0.5],[1,0.5]];portConstraint=eastwest;top=0;left=0;right=0;bottom=0;fontSize=16;swimlaneLine=1;swimlaneFillColor=none;" vertex="1" parent="-ewRZKTb8vtjLKapeMIc-1">
          <mxGeometry y="145" width="210" height="35" as="geometry" />
        </mxCell>
        <mxCell id="-ewRZKTb8vtjLKapeMIc-12" value="" style="shape=partialRectangle;connectable=0;fillColor=none;top=0;left=0;bottom=0;right=0;editable=1;overflow=hidden;whiteSpace=wrap;html=1;fontSize=16;swimlaneLine=1;swimlaneFillColor=none;" vertex="1" parent="-ewRZKTb8vtjLKapeMIc-11">
          <mxGeometry width="30" height="35" as="geometry">
            <mxRectangle width="30" height="35" as="alternateBounds" />
          </mxGeometry>
        </mxCell>
        <mxCell id="-ewRZKTb8vtjLKapeMIc-13" value="firstname" style="shape=partialRectangle;connectable=0;fillColor=none;top=0;left=0;bottom=0;right=0;align=left;spacingLeft=6;overflow=hidden;whiteSpace=wrap;html=1;fontSize=16;swimlaneLine=1;swimlaneFillColor=none;" vertex="1" parent="-ewRZKTb8vtjLKapeMIc-11">
          <mxGeometry x="30" width="180" height="35" as="geometry">
            <mxRectangle width="180" height="35" as="alternateBounds" />
          </mxGeometry>
        </mxCell>
        <mxCell id="-ewRZKTb8vtjLKapeMIc-14" value="" style="shape=tableRow;horizontal=0;startSize=0;swimlaneHead=0;swimlaneBody=0;fillColor=none;collapsible=0;dropTarget=0;points=[[0,0.5],[1,0.5]];portConstraint=eastwest;top=0;left=0;right=0;bottom=0;fontSize=16;swimlaneLine=1;swimlaneFillColor=none;" vertex="1" parent="-ewRZKTb8vtjLKapeMIc-1">
          <mxGeometry y="180" width="210" height="35" as="geometry" />
        </mxCell>
        <mxCell id="-ewRZKTb8vtjLKapeMIc-15" value="" style="shape=partialRectangle;connectable=0;fillColor=none;top=0;left=0;bottom=0;right=0;editable=1;overflow=hidden;whiteSpace=wrap;html=1;fontSize=16;swimlaneLine=1;swimlaneFillColor=none;" vertex="1" parent="-ewRZKTb8vtjLKapeMIc-14">
          <mxGeometry width="30" height="35" as="geometry">
            <mxRectangle width="30" height="35" as="alternateBounds" />
          </mxGeometry>
        </mxCell>
        <mxCell id="-ewRZKTb8vtjLKapeMIc-16" value="lastname" style="shape=partialRectangle;connectable=0;fillColor=none;top=0;left=0;bottom=0;right=0;align=left;spacingLeft=6;overflow=hidden;whiteSpace=wrap;html=1;fontSize=16;swimlaneLine=1;swimlaneFillColor=none;" vertex="1" parent="-ewRZKTb8vtjLKapeMIc-14">
          <mxGeometry x="30" width="180" height="35" as="geometry">
            <mxRectangle width="180" height="35" as="alternateBounds" />
          </mxGeometry>
        </mxCell>
        <mxCell id="-ewRZKTb8vtjLKapeMIc-17" value="" style="shape=tableRow;horizontal=0;startSize=0;swimlaneHead=0;swimlaneBody=0;fillColor=none;collapsible=0;dropTarget=0;points=[[0,0.5],[1,0.5]];portConstraint=eastwest;top=0;left=0;right=0;bottom=0;fontSize=16;swimlaneLine=1;swimlaneFillColor=none;" vertex="1" parent="-ewRZKTb8vtjLKapeMIc-1">
          <mxGeometry y="215" width="210" height="35" as="geometry" />
        </mxCell>
        <mxCell id="-ewRZKTb8vtjLKapeMIc-18" value="" style="shape=partialRectangle;connectable=0;fillColor=none;top=0;left=0;bottom=0;right=0;editable=1;overflow=hidden;whiteSpace=wrap;html=1;fontSize=16;swimlaneLine=1;swimlaneFillColor=none;" vertex="1" parent="-ewRZKTb8vtjLKapeMIc-17">
          <mxGeometry width="30" height="35" as="geometry">
            <mxRectangle width="30" height="35" as="alternateBounds" />
          </mxGeometry>
        </mxCell>
        <mxCell id="-ewRZKTb8vtjLKapeMIc-19" value="country" style="shape=partialRectangle;connectable=0;fillColor=none;top=0;left=0;bottom=0;right=0;align=left;spacingLeft=6;overflow=hidden;whiteSpace=wrap;html=1;fontSize=16;swimlaneLine=1;swimlaneFillColor=none;" vertex="1" parent="-ewRZKTb8vtjLKapeMIc-17">
          <mxGeometry x="30" width="180" height="35" as="geometry">
            <mxRectangle width="180" height="35" as="alternateBounds" />
          </mxGeometry>
        </mxCell>
        <mxCell id="-ewRZKTb8vtjLKapeMIc-20" value="" style="shape=tableRow;horizontal=0;startSize=0;swimlaneHead=0;swimlaneBody=0;fillColor=none;collapsible=0;dropTarget=0;points=[[0,0.5],[1,0.5]];portConstraint=eastwest;top=0;left=0;right=0;bottom=0;fontSize=16;swimlaneLine=1;swimlaneFillColor=none;" vertex="1" parent="-ewRZKTb8vtjLKapeMIc-1">
          <mxGeometry y="250" width="210" height="35" as="geometry" />
        </mxCell>
        <mxCell id="-ewRZKTb8vtjLKapeMIc-21" value="" style="shape=partialRectangle;connectable=0;fillColor=none;top=0;left=0;bottom=0;right=0;editable=1;overflow=hidden;whiteSpace=wrap;html=1;fontSize=16;swimlaneLine=1;swimlaneFillColor=none;" vertex="1" parent="-ewRZKTb8vtjLKapeMIc-20">
          <mxGeometry width="30" height="35" as="geometry">
            <mxRectangle width="30" height="35" as="alternateBounds" />
          </mxGeometry>
        </mxCell>
        <mxCell id="-ewRZKTb8vtjLKapeMIc-22" value="marital_status" style="shape=partialRectangle;connectable=0;fillColor=none;top=0;left=0;bottom=0;right=0;align=left;spacingLeft=6;overflow=hidden;whiteSpace=wrap;html=1;fontSize=16;swimlaneLine=1;swimlaneFillColor=none;" vertex="1" parent="-ewRZKTb8vtjLKapeMIc-20">
          <mxGeometry x="30" width="180" height="35" as="geometry">
            <mxRectangle width="180" height="35" as="alternateBounds" />
          </mxGeometry>
        </mxCell>
        <mxCell id="-ewRZKTb8vtjLKapeMIc-23" value="" style="shape=tableRow;horizontal=0;startSize=0;swimlaneHead=0;swimlaneBody=0;fillColor=none;collapsible=0;dropTarget=0;points=[[0,0.5],[1,0.5]];portConstraint=eastwest;top=0;left=0;right=0;bottom=0;fontSize=16;swimlaneLine=1;swimlaneFillColor=none;" vertex="1" parent="-ewRZKTb8vtjLKapeMIc-1">
          <mxGeometry y="285" width="210" height="35" as="geometry" />
        </mxCell>
        <mxCell id="-ewRZKTb8vtjLKapeMIc-24" value="" style="shape=partialRectangle;connectable=0;fillColor=none;top=0;left=0;bottom=0;right=0;editable=1;overflow=hidden;whiteSpace=wrap;html=1;fontSize=16;swimlaneLine=1;swimlaneFillColor=none;" vertex="1" parent="-ewRZKTb8vtjLKapeMIc-23">
          <mxGeometry width="30" height="35" as="geometry">
            <mxRectangle width="30" height="35" as="alternateBounds" />
          </mxGeometry>
        </mxCell>
        <mxCell id="-ewRZKTb8vtjLKapeMIc-25" value="gender" style="shape=partialRectangle;connectable=0;fillColor=none;top=0;left=0;bottom=0;right=0;align=left;spacingLeft=6;overflow=hidden;whiteSpace=wrap;html=1;fontSize=16;swimlaneLine=1;swimlaneFillColor=none;" vertex="1" parent="-ewRZKTb8vtjLKapeMIc-23">
          <mxGeometry x="30" width="180" height="35" as="geometry">
            <mxRectangle width="180" height="35" as="alternateBounds" />
          </mxGeometry>
        </mxCell>
        <mxCell id="-ewRZKTb8vtjLKapeMIc-26" value="" style="shape=tableRow;horizontal=0;startSize=0;swimlaneHead=0;swimlaneBody=0;fillColor=none;collapsible=0;dropTarget=0;points=[[0,0.5],[1,0.5]];portConstraint=eastwest;top=0;left=0;right=0;bottom=0;fontSize=16;swimlaneLine=1;swimlaneFillColor=none;" vertex="1" parent="-ewRZKTb8vtjLKapeMIc-1">
          <mxGeometry y="320" width="210" height="35" as="geometry" />
        </mxCell>
        <mxCell id="-ewRZKTb8vtjLKapeMIc-27" value="" style="shape=partialRectangle;connectable=0;fillColor=none;top=0;left=0;bottom=0;right=0;editable=1;overflow=hidden;whiteSpace=wrap;html=1;fontSize=16;swimlaneLine=1;swimlaneFillColor=none;" vertex="1" parent="-ewRZKTb8vtjLKapeMIc-26">
          <mxGeometry width="30" height="35" as="geometry">
            <mxRectangle width="30" height="35" as="alternateBounds" />
          </mxGeometry>
        </mxCell>
        <mxCell id="-ewRZKTb8vtjLKapeMIc-28" value="birthdate" style="shape=partialRectangle;connectable=0;fillColor=none;top=0;left=0;bottom=0;right=0;align=left;spacingLeft=6;overflow=hidden;whiteSpace=wrap;html=1;fontSize=16;swimlaneLine=1;swimlaneFillColor=none;" vertex="1" parent="-ewRZKTb8vtjLKapeMIc-26">
          <mxGeometry x="30" width="180" height="35" as="geometry">
            <mxRectangle width="180" height="35" as="alternateBounds" />
          </mxGeometry>
        </mxCell>
        <mxCell id="-ewRZKTb8vtjLKapeMIc-29" value="" style="shape=tableRow;horizontal=0;startSize=0;swimlaneHead=0;swimlaneBody=0;fillColor=none;collapsible=0;dropTarget=0;points=[[0,0.5],[1,0.5]];portConstraint=eastwest;top=0;left=0;right=0;bottom=0;fontSize=16;swimlaneLine=1;swimlaneFillColor=none;" vertex="1" parent="-ewRZKTb8vtjLKapeMIc-1">
          <mxGeometry y="355" width="210" height="35" as="geometry" />
        </mxCell>
        <mxCell id="-ewRZKTb8vtjLKapeMIc-30" value="" style="shape=partialRectangle;connectable=0;fillColor=none;top=0;left=0;bottom=0;right=0;editable=1;overflow=hidden;whiteSpace=wrap;html=1;fontSize=16;swimlaneLine=1;swimlaneFillColor=none;" vertex="1" parent="-ewRZKTb8vtjLKapeMIc-29">
          <mxGeometry width="30" height="35" as="geometry">
            <mxRectangle width="30" height="35" as="alternateBounds" />
          </mxGeometry>
        </mxCell>
        <mxCell id="-ewRZKTb8vtjLKapeMIc-31" value="create_date" style="shape=partialRectangle;connectable=0;fillColor=none;top=0;left=0;bottom=0;right=0;align=left;spacingLeft=6;overflow=hidden;whiteSpace=wrap;html=1;fontSize=16;swimlaneLine=1;swimlaneFillColor=none;" vertex="1" parent="-ewRZKTb8vtjLKapeMIc-29">
          <mxGeometry x="30" width="180" height="35" as="geometry">
            <mxRectangle width="180" height="35" as="alternateBounds" />
          </mxGeometry>
        </mxCell>
        <mxCell id="-ewRZKTb8vtjLKapeMIc-32" value="gold.dim_products" style="shape=table;startSize=40;container=1;collapsible=1;childLayout=tableLayout;fixedRows=1;rowLines=0;fontStyle=1;align=center;resizeLast=1;html=1;fontSize=16;swimlaneLine=1;swimlaneFillColor=none;fillColor=#fff2cc;strokeColor=#d6b656;rounded=1;" vertex="1" parent="1">
          <mxGeometry x="650" y="140" width="210" height="425" as="geometry" />
        </mxCell>
        <mxCell id="-ewRZKTb8vtjLKapeMIc-33" value="" style="shape=tableRow;horizontal=0;startSize=0;swimlaneHead=0;swimlaneBody=0;fillColor=none;collapsible=0;dropTarget=0;points=[[0,0.5],[1,0.5]];portConstraint=eastwest;top=0;left=0;right=0;bottom=1;fontSize=16;swimlaneLine=1;swimlaneFillColor=none;" vertex="1" parent="-ewRZKTb8vtjLKapeMIc-32">
          <mxGeometry y="40" width="210" height="35" as="geometry" />
        </mxCell>
        <mxCell id="-ewRZKTb8vtjLKapeMIc-34" value="PK" style="shape=partialRectangle;connectable=0;fillColor=none;top=0;left=0;bottom=0;right=0;fontStyle=1;overflow=hidden;whiteSpace=wrap;html=1;fontSize=16;swimlaneLine=1;swimlaneFillColor=none;" vertex="1" parent="-ewRZKTb8vtjLKapeMIc-33">
          <mxGeometry width="30" height="35" as="geometry">
            <mxRectangle width="30" height="35" as="alternateBounds" />
          </mxGeometry>
        </mxCell>
        <mxCell id="-ewRZKTb8vtjLKapeMIc-35" value="product_key" style="shape=partialRectangle;connectable=0;fillColor=none;top=0;left=0;bottom=0;right=0;align=left;spacingLeft=6;fontStyle=5;overflow=hidden;whiteSpace=wrap;html=1;fontSize=16;swimlaneLine=1;swimlaneFillColor=none;" vertex="1" parent="-ewRZKTb8vtjLKapeMIc-33">
          <mxGeometry x="30" width="180" height="35" as="geometry">
            <mxRectangle width="180" height="35" as="alternateBounds" />
          </mxGeometry>
        </mxCell>
        <mxCell id="-ewRZKTb8vtjLKapeMIc-36" value="" style="shape=tableRow;horizontal=0;startSize=0;swimlaneHead=0;swimlaneBody=0;fillColor=none;collapsible=0;dropTarget=0;points=[[0,0.5],[1,0.5]];portConstraint=eastwest;top=0;left=0;right=0;bottom=0;fontSize=16;swimlaneLine=1;swimlaneFillColor=none;" vertex="1" parent="-ewRZKTb8vtjLKapeMIc-32">
          <mxGeometry y="75" width="210" height="35" as="geometry" />
        </mxCell>
        <mxCell id="-ewRZKTb8vtjLKapeMIc-37" value="" style="shape=partialRectangle;connectable=0;fillColor=none;top=0;left=0;bottom=0;right=0;editable=1;overflow=hidden;whiteSpace=wrap;html=1;fontSize=16;swimlaneLine=1;swimlaneFillColor=none;" vertex="1" parent="-ewRZKTb8vtjLKapeMIc-36">
          <mxGeometry width="30" height="35" as="geometry">
            <mxRectangle width="30" height="35" as="alternateBounds" />
          </mxGeometry>
        </mxCell>
        <mxCell id="-ewRZKTb8vtjLKapeMIc-38" value="product_id" style="shape=partialRectangle;connectable=0;fillColor=none;top=0;left=0;bottom=0;right=0;align=left;spacingLeft=6;overflow=hidden;whiteSpace=wrap;html=1;fontSize=16;swimlaneLine=1;swimlaneFillColor=none;" vertex="1" parent="-ewRZKTb8vtjLKapeMIc-36">
          <mxGeometry x="30" width="180" height="35" as="geometry">
            <mxRectangle width="180" height="35" as="alternateBounds" />
          </mxGeometry>
        </mxCell>
        <mxCell id="-ewRZKTb8vtjLKapeMIc-39" value="" style="shape=tableRow;horizontal=0;startSize=0;swimlaneHead=0;swimlaneBody=0;fillColor=none;collapsible=0;dropTarget=0;points=[[0,0.5],[1,0.5]];portConstraint=eastwest;top=0;left=0;right=0;bottom=0;fontSize=16;swimlaneLine=1;swimlaneFillColor=none;" vertex="1" parent="-ewRZKTb8vtjLKapeMIc-32">
          <mxGeometry y="110" width="210" height="35" as="geometry" />
        </mxCell>
        <mxCell id="-ewRZKTb8vtjLKapeMIc-40" value="" style="shape=partialRectangle;connectable=0;fillColor=none;top=0;left=0;bottom=0;right=0;editable=1;overflow=hidden;whiteSpace=wrap;html=1;fontSize=16;swimlaneLine=1;swimlaneFillColor=none;" vertex="1" parent="-ewRZKTb8vtjLKapeMIc-39">
          <mxGeometry width="30" height="35" as="geometry">
            <mxRectangle width="30" height="35" as="alternateBounds" />
          </mxGeometry>
        </mxCell>
        <mxCell id="-ewRZKTb8vtjLKapeMIc-41" value="product_number" style="shape=partialRectangle;connectable=0;fillColor=none;top=0;left=0;bottom=0;right=0;align=left;spacingLeft=6;overflow=hidden;whiteSpace=wrap;html=1;fontSize=16;swimlaneLine=1;swimlaneFillColor=none;" vertex="1" parent="-ewRZKTb8vtjLKapeMIc-39">
          <mxGeometry x="30" width="180" height="35" as="geometry">
            <mxRectangle width="180" height="35" as="alternateBounds" />
          </mxGeometry>
        </mxCell>
        <mxCell id="-ewRZKTb8vtjLKapeMIc-42" value="" style="shape=tableRow;horizontal=0;startSize=0;swimlaneHead=0;swimlaneBody=0;fillColor=none;collapsible=0;dropTarget=0;points=[[0,0.5],[1,0.5]];portConstraint=eastwest;top=0;left=0;right=0;bottom=0;fontSize=16;swimlaneLine=1;swimlaneFillColor=none;" vertex="1" parent="-ewRZKTb8vtjLKapeMIc-32">
          <mxGeometry y="145" width="210" height="35" as="geometry" />
        </mxCell>
        <mxCell id="-ewRZKTb8vtjLKapeMIc-43" value="" style="shape=partialRectangle;connectable=0;fillColor=none;top=0;left=0;bottom=0;right=0;editable=1;overflow=hidden;whiteSpace=wrap;html=1;fontSize=16;swimlaneLine=1;swimlaneFillColor=none;" vertex="1" parent="-ewRZKTb8vtjLKapeMIc-42">
          <mxGeometry width="30" height="35" as="geometry">
            <mxRectangle width="30" height="35" as="alternateBounds" />
          </mxGeometry>
        </mxCell>
        <mxCell id="-ewRZKTb8vtjLKapeMIc-44" value="product_name" style="shape=partialRectangle;connectable=0;fillColor=none;top=0;left=0;bottom=0;right=0;align=left;spacingLeft=6;overflow=hidden;whiteSpace=wrap;html=1;fontSize=16;swimlaneLine=1;swimlaneFillColor=none;" vertex="1" parent="-ewRZKTb8vtjLKapeMIc-42">
          <mxGeometry x="30" width="180" height="35" as="geometry">
            <mxRectangle width="180" height="35" as="alternateBounds" />
          </mxGeometry>
        </mxCell>
        <mxCell id="-ewRZKTb8vtjLKapeMIc-45" value="" style="shape=tableRow;horizontal=0;startSize=0;swimlaneHead=0;swimlaneBody=0;fillColor=none;collapsible=0;dropTarget=0;points=[[0,0.5],[1,0.5]];portConstraint=eastwest;top=0;left=0;right=0;bottom=0;fontSize=16;swimlaneLine=1;swimlaneFillColor=none;" vertex="1" parent="-ewRZKTb8vtjLKapeMIc-32">
          <mxGeometry y="180" width="210" height="35" as="geometry" />
        </mxCell>
        <mxCell id="-ewRZKTb8vtjLKapeMIc-46" value="" style="shape=partialRectangle;connectable=0;fillColor=none;top=0;left=0;bottom=0;right=0;editable=1;overflow=hidden;whiteSpace=wrap;html=1;fontSize=16;swimlaneLine=1;swimlaneFillColor=none;" vertex="1" parent="-ewRZKTb8vtjLKapeMIc-45">
          <mxGeometry width="30" height="35" as="geometry">
            <mxRectangle width="30" height="35" as="alternateBounds" />
          </mxGeometry>
        </mxCell>
        <mxCell id="-ewRZKTb8vtjLKapeMIc-47" value="category_id" style="shape=partialRectangle;connectable=0;fillColor=none;top=0;left=0;bottom=0;right=0;align=left;spacingLeft=6;overflow=hidden;whiteSpace=wrap;html=1;fontSize=16;swimlaneLine=1;swimlaneFillColor=none;" vertex="1" parent="-ewRZKTb8vtjLKapeMIc-45">
          <mxGeometry x="30" width="180" height="35" as="geometry">
            <mxRectangle width="180" height="35" as="alternateBounds" />
          </mxGeometry>
        </mxCell>
        <mxCell id="-ewRZKTb8vtjLKapeMIc-48" value="" style="shape=tableRow;horizontal=0;startSize=0;swimlaneHead=0;swimlaneBody=0;fillColor=none;collapsible=0;dropTarget=0;points=[[0,0.5],[1,0.5]];portConstraint=eastwest;top=0;left=0;right=0;bottom=0;fontSize=16;swimlaneLine=1;swimlaneFillColor=none;" vertex="1" parent="-ewRZKTb8vtjLKapeMIc-32">
          <mxGeometry y="215" width="210" height="35" as="geometry" />
        </mxCell>
        <mxCell id="-ewRZKTb8vtjLKapeMIc-49" value="" style="shape=partialRectangle;connectable=0;fillColor=none;top=0;left=0;bottom=0;right=0;editable=1;overflow=hidden;whiteSpace=wrap;html=1;fontSize=16;swimlaneLine=1;swimlaneFillColor=none;" vertex="1" parent="-ewRZKTb8vtjLKapeMIc-48">
          <mxGeometry width="30" height="35" as="geometry">
            <mxRectangle width="30" height="35" as="alternateBounds" />
          </mxGeometry>
        </mxCell>
        <mxCell id="-ewRZKTb8vtjLKapeMIc-50" value="category" style="shape=partialRectangle;connectable=0;fillColor=none;top=0;left=0;bottom=0;right=0;align=left;spacingLeft=6;overflow=hidden;whiteSpace=wrap;html=1;fontSize=16;swimlaneLine=1;swimlaneFillColor=none;" vertex="1" parent="-ewRZKTb8vtjLKapeMIc-48">
          <mxGeometry x="30" width="180" height="35" as="geometry">
            <mxRectangle width="180" height="35" as="alternateBounds" />
          </mxGeometry>
        </mxCell>
        <mxCell id="-ewRZKTb8vtjLKapeMIc-51" value="" style="shape=tableRow;horizontal=0;startSize=0;swimlaneHead=0;swimlaneBody=0;fillColor=none;collapsible=0;dropTarget=0;points=[[0,0.5],[1,0.5]];portConstraint=eastwest;top=0;left=0;right=0;bottom=0;fontSize=16;swimlaneLine=1;swimlaneFillColor=none;" vertex="1" parent="-ewRZKTb8vtjLKapeMIc-32">
          <mxGeometry y="250" width="210" height="35" as="geometry" />
        </mxCell>
        <mxCell id="-ewRZKTb8vtjLKapeMIc-52" value="" style="shape=partialRectangle;connectable=0;fillColor=none;top=0;left=0;bottom=0;right=0;editable=1;overflow=hidden;whiteSpace=wrap;html=1;fontSize=16;swimlaneLine=1;swimlaneFillColor=none;" vertex="1" parent="-ewRZKTb8vtjLKapeMIc-51">
          <mxGeometry width="30" height="35" as="geometry">
            <mxRectangle width="30" height="35" as="alternateBounds" />
          </mxGeometry>
        </mxCell>
        <mxCell id="-ewRZKTb8vtjLKapeMIc-53" value="sub_category" style="shape=partialRectangle;connectable=0;fillColor=none;top=0;left=0;bottom=0;right=0;align=left;spacingLeft=6;overflow=hidden;whiteSpace=wrap;html=1;fontSize=16;swimlaneLine=1;swimlaneFillColor=none;" vertex="1" parent="-ewRZKTb8vtjLKapeMIc-51">
          <mxGeometry x="30" width="180" height="35" as="geometry">
            <mxRectangle width="180" height="35" as="alternateBounds" />
          </mxGeometry>
        </mxCell>
        <mxCell id="-ewRZKTb8vtjLKapeMIc-54" value="" style="shape=tableRow;horizontal=0;startSize=0;swimlaneHead=0;swimlaneBody=0;fillColor=none;collapsible=0;dropTarget=0;points=[[0,0.5],[1,0.5]];portConstraint=eastwest;top=0;left=0;right=0;bottom=0;fontSize=16;swimlaneLine=1;swimlaneFillColor=none;" vertex="1" parent="-ewRZKTb8vtjLKapeMIc-32">
          <mxGeometry y="285" width="210" height="35" as="geometry" />
        </mxCell>
        <mxCell id="-ewRZKTb8vtjLKapeMIc-55" value="" style="shape=partialRectangle;connectable=0;fillColor=none;top=0;left=0;bottom=0;right=0;editable=1;overflow=hidden;whiteSpace=wrap;html=1;fontSize=16;swimlaneLine=1;swimlaneFillColor=none;" vertex="1" parent="-ewRZKTb8vtjLKapeMIc-54">
          <mxGeometry width="30" height="35" as="geometry">
            <mxRectangle width="30" height="35" as="alternateBounds" />
          </mxGeometry>
        </mxCell>
        <mxCell id="-ewRZKTb8vtjLKapeMIc-56" value="maintenance" style="shape=partialRectangle;connectable=0;fillColor=none;top=0;left=0;bottom=0;right=0;align=left;spacingLeft=6;overflow=hidden;whiteSpace=wrap;html=1;fontSize=16;swimlaneLine=1;swimlaneFillColor=none;" vertex="1" parent="-ewRZKTb8vtjLKapeMIc-54">
          <mxGeometry x="30" width="180" height="35" as="geometry">
            <mxRectangle width="180" height="35" as="alternateBounds" />
          </mxGeometry>
        </mxCell>
        <mxCell id="-ewRZKTb8vtjLKapeMIc-57" value="" style="shape=tableRow;horizontal=0;startSize=0;swimlaneHead=0;swimlaneBody=0;fillColor=none;collapsible=0;dropTarget=0;points=[[0,0.5],[1,0.5]];portConstraint=eastwest;top=0;left=0;right=0;bottom=0;fontSize=16;swimlaneLine=1;swimlaneFillColor=none;" vertex="1" parent="-ewRZKTb8vtjLKapeMIc-32">
          <mxGeometry y="320" width="210" height="35" as="geometry" />
        </mxCell>
        <mxCell id="-ewRZKTb8vtjLKapeMIc-58" value="" style="shape=partialRectangle;connectable=0;fillColor=none;top=0;left=0;bottom=0;right=0;editable=1;overflow=hidden;whiteSpace=wrap;html=1;fontSize=16;swimlaneLine=1;swimlaneFillColor=none;" vertex="1" parent="-ewRZKTb8vtjLKapeMIc-57">
          <mxGeometry width="30" height="35" as="geometry">
            <mxRectangle width="30" height="35" as="alternateBounds" />
          </mxGeometry>
        </mxCell>
        <mxCell id="-ewRZKTb8vtjLKapeMIc-59" value="cost" style="shape=partialRectangle;connectable=0;fillColor=none;top=0;left=0;bottom=0;right=0;align=left;spacingLeft=6;overflow=hidden;whiteSpace=wrap;html=1;fontSize=16;swimlaneLine=1;swimlaneFillColor=none;" vertex="1" parent="-ewRZKTb8vtjLKapeMIc-57">
          <mxGeometry x="30" width="180" height="35" as="geometry">
            <mxRectangle width="180" height="35" as="alternateBounds" />
          </mxGeometry>
        </mxCell>
        <mxCell id="-ewRZKTb8vtjLKapeMIc-60" value="" style="shape=tableRow;horizontal=0;startSize=0;swimlaneHead=0;swimlaneBody=0;fillColor=none;collapsible=0;dropTarget=0;points=[[0,0.5],[1,0.5]];portConstraint=eastwest;top=0;left=0;right=0;bottom=0;fontSize=16;swimlaneLine=1;swimlaneFillColor=none;" vertex="1" parent="-ewRZKTb8vtjLKapeMIc-32">
          <mxGeometry y="355" width="210" height="35" as="geometry" />
        </mxCell>
        <mxCell id="-ewRZKTb8vtjLKapeMIc-61" value="" style="shape=partialRectangle;connectable=0;fillColor=none;top=0;left=0;bottom=0;right=0;editable=1;overflow=hidden;whiteSpace=wrap;html=1;fontSize=16;swimlaneLine=1;swimlaneFillColor=none;" vertex="1" parent="-ewRZKTb8vtjLKapeMIc-60">
          <mxGeometry width="30" height="35" as="geometry">
            <mxRectangle width="30" height="35" as="alternateBounds" />
          </mxGeometry>
        </mxCell>
        <mxCell id="-ewRZKTb8vtjLKapeMIc-62" value="product_line" style="shape=partialRectangle;connectable=0;fillColor=none;top=0;left=0;bottom=0;right=0;align=left;spacingLeft=6;overflow=hidden;whiteSpace=wrap;html=1;fontSize=16;swimlaneLine=1;swimlaneFillColor=none;" vertex="1" parent="-ewRZKTb8vtjLKapeMIc-60">
          <mxGeometry x="30" width="180" height="35" as="geometry">
            <mxRectangle width="180" height="35" as="alternateBounds" />
          </mxGeometry>
        </mxCell>
        <mxCell id="-ewRZKTb8vtjLKapeMIc-70" value="" style="shape=tableRow;horizontal=0;startSize=0;swimlaneHead=0;swimlaneBody=0;fillColor=none;collapsible=0;dropTarget=0;points=[[0,0.5],[1,0.5]];portConstraint=eastwest;top=0;left=0;right=0;bottom=0;fontSize=16;swimlaneLine=1;swimlaneFillColor=none;" vertex="1" parent="-ewRZKTb8vtjLKapeMIc-32">
          <mxGeometry y="390" width="210" height="35" as="geometry" />
        </mxCell>
        <mxCell id="-ewRZKTb8vtjLKapeMIc-71" value="" style="shape=partialRectangle;connectable=0;fillColor=none;top=0;left=0;bottom=0;right=0;editable=1;overflow=hidden;whiteSpace=wrap;html=1;fontSize=16;swimlaneLine=1;swimlaneFillColor=none;" vertex="1" parent="-ewRZKTb8vtjLKapeMIc-70">
          <mxGeometry width="30" height="35" as="geometry">
            <mxRectangle width="30" height="35" as="alternateBounds" />
          </mxGeometry>
        </mxCell>
        <mxCell id="-ewRZKTb8vtjLKapeMIc-72" value="start_date" style="shape=partialRectangle;connectable=0;fillColor=none;top=0;left=0;bottom=0;right=0;align=left;spacingLeft=6;overflow=hidden;whiteSpace=wrap;html=1;fontSize=16;swimlaneLine=1;swimlaneFillColor=none;" vertex="1" parent="-ewRZKTb8vtjLKapeMIc-70">
          <mxGeometry x="30" width="180" height="35" as="geometry">
            <mxRectangle width="180" height="35" as="alternateBounds" />
          </mxGeometry>
        </mxCell>
        <mxCell id="-ewRZKTb8vtjLKapeMIc-73" value="gold.fact_sales" style="shape=table;startSize=40;container=1;collapsible=1;childLayout=tableLayout;fixedRows=1;rowLines=0;fontStyle=1;align=center;resizeLast=1;html=1;fontSize=16;swimlaneLine=1;swimlaneFillColor=none;fillColor=#dae8fc;strokeColor=#6c8ebf;rounded=1;" vertex="1" parent="1">
          <mxGeometry x="320" y="140" width="210" height="355" as="geometry" />
        </mxCell>
        <mxCell id="-ewRZKTb8vtjLKapeMIc-80" value="" style="shape=tableRow;horizontal=0;startSize=0;swimlaneHead=0;swimlaneBody=0;fillColor=none;collapsible=0;dropTarget=0;points=[[0,0.5],[1,0.5]];portConstraint=eastwest;top=0;left=0;right=0;bottom=0;fontSize=16;swimlaneLine=1;swimlaneFillColor=none;" vertex="1" parent="-ewRZKTb8vtjLKapeMIc-73">
          <mxGeometry y="40" width="210" height="35" as="geometry" />
        </mxCell>
        <mxCell id="-ewRZKTb8vtjLKapeMIc-81" value="" style="shape=partialRectangle;connectable=0;fillColor=none;top=0;left=0;bottom=0;right=0;editable=1;overflow=hidden;whiteSpace=wrap;html=1;fontSize=16;swimlaneLine=1;swimlaneFillColor=none;" vertex="1" parent="-ewRZKTb8vtjLKapeMIc-80">
          <mxGeometry width="40" height="35" as="geometry">
            <mxRectangle width="40" height="35" as="alternateBounds" />
          </mxGeometry>
        </mxCell>
        <mxCell id="-ewRZKTb8vtjLKapeMIc-82" value="order_number" style="shape=partialRectangle;connectable=0;fillColor=none;top=0;left=0;bottom=0;right=0;align=left;spacingLeft=6;overflow=hidden;whiteSpace=wrap;html=1;fontSize=16;swimlaneLine=1;swimlaneFillColor=none;" vertex="1" parent="-ewRZKTb8vtjLKapeMIc-80">
          <mxGeometry x="40" width="170" height="35" as="geometry">
            <mxRectangle width="170" height="35" as="alternateBounds" />
          </mxGeometry>
        </mxCell>
        <mxCell id="-ewRZKTb8vtjLKapeMIc-83" value="" style="shape=tableRow;horizontal=0;startSize=0;swimlaneHead=0;swimlaneBody=0;fillColor=none;collapsible=0;dropTarget=0;points=[[0,0.5],[1,0.5]];portConstraint=eastwest;top=0;left=0;right=0;bottom=0;fontSize=16;swimlaneLine=1;swimlaneFillColor=none;" vertex="1" parent="-ewRZKTb8vtjLKapeMIc-73">
          <mxGeometry y="75" width="210" height="35" as="geometry" />
        </mxCell>
        <mxCell id="-ewRZKTb8vtjLKapeMIc-84" value="FK1" style="shape=partialRectangle;connectable=0;fillColor=none;top=0;left=0;bottom=0;right=0;editable=1;overflow=hidden;whiteSpace=wrap;html=1;fontSize=16;swimlaneLine=1;swimlaneFillColor=none;fontStyle=1" vertex="1" parent="-ewRZKTb8vtjLKapeMIc-83">
          <mxGeometry width="40" height="35" as="geometry">
            <mxRectangle width="40" height="35" as="alternateBounds" />
          </mxGeometry>
        </mxCell>
        <mxCell id="-ewRZKTb8vtjLKapeMIc-85" value="product_key" style="shape=partialRectangle;connectable=0;fillColor=none;top=0;left=0;bottom=0;right=0;align=left;spacingLeft=6;overflow=hidden;whiteSpace=wrap;html=1;fontSize=16;swimlaneLine=1;swimlaneFillColor=none;fontStyle=1" vertex="1" parent="-ewRZKTb8vtjLKapeMIc-83">
          <mxGeometry x="40" width="170" height="35" as="geometry">
            <mxRectangle width="170" height="35" as="alternateBounds" />
          </mxGeometry>
        </mxCell>
        <mxCell id="-ewRZKTb8vtjLKapeMIc-86" value="" style="shape=tableRow;horizontal=0;startSize=0;swimlaneHead=0;swimlaneBody=0;fillColor=none;collapsible=0;dropTarget=0;points=[[0,0.5],[1,0.5]];portConstraint=eastwest;top=0;left=0;right=0;bottom=0;fontSize=16;swimlaneLine=1;swimlaneFillColor=none;" vertex="1" parent="-ewRZKTb8vtjLKapeMIc-73">
          <mxGeometry y="110" width="210" height="35" as="geometry" />
        </mxCell>
        <mxCell id="-ewRZKTb8vtjLKapeMIc-87" value="FK2" style="shape=partialRectangle;connectable=0;fillColor=none;top=0;left=0;bottom=0;right=0;editable=1;overflow=hidden;whiteSpace=wrap;html=1;fontSize=16;swimlaneLine=1;swimlaneFillColor=none;fontStyle=1" vertex="1" parent="-ewRZKTb8vtjLKapeMIc-86">
          <mxGeometry width="40" height="35" as="geometry">
            <mxRectangle width="40" height="35" as="alternateBounds" />
          </mxGeometry>
        </mxCell>
        <mxCell id="-ewRZKTb8vtjLKapeMIc-88" value="customer_key" style="shape=partialRectangle;connectable=0;fillColor=none;top=0;left=0;bottom=0;right=0;align=left;spacingLeft=6;overflow=hidden;whiteSpace=wrap;html=1;fontSize=16;swimlaneLine=1;swimlaneFillColor=none;fontStyle=1" vertex="1" parent="-ewRZKTb8vtjLKapeMIc-86">
          <mxGeometry x="40" width="170" height="35" as="geometry">
            <mxRectangle width="170" height="35" as="alternateBounds" />
          </mxGeometry>
        </mxCell>
        <mxCell id="-ewRZKTb8vtjLKapeMIc-89" value="" style="shape=tableRow;horizontal=0;startSize=0;swimlaneHead=0;swimlaneBody=0;fillColor=none;collapsible=0;dropTarget=0;points=[[0,0.5],[1,0.5]];portConstraint=eastwest;top=0;left=0;right=0;bottom=0;fontSize=16;swimlaneLine=1;swimlaneFillColor=none;" vertex="1" parent="-ewRZKTb8vtjLKapeMIc-73">
          <mxGeometry y="145" width="210" height="35" as="geometry" />
        </mxCell>
        <mxCell id="-ewRZKTb8vtjLKapeMIc-90" value="" style="shape=partialRectangle;connectable=0;fillColor=none;top=0;left=0;bottom=0;right=0;editable=1;overflow=hidden;whiteSpace=wrap;html=1;fontSize=16;swimlaneLine=1;swimlaneFillColor=none;" vertex="1" parent="-ewRZKTb8vtjLKapeMIc-89">
          <mxGeometry width="40" height="35" as="geometry">
            <mxRectangle width="40" height="35" as="alternateBounds" />
          </mxGeometry>
        </mxCell>
        <mxCell id="-ewRZKTb8vtjLKapeMIc-91" value="order_date" style="shape=partialRectangle;connectable=0;fillColor=none;top=0;left=0;bottom=0;right=0;align=left;spacingLeft=6;overflow=hidden;whiteSpace=wrap;html=1;fontSize=16;swimlaneLine=1;swimlaneFillColor=none;" vertex="1" parent="-ewRZKTb8vtjLKapeMIc-89">
          <mxGeometry x="40" width="170" height="35" as="geometry">
            <mxRectangle width="170" height="35" as="alternateBounds" />
          </mxGeometry>
        </mxCell>
        <mxCell id="-ewRZKTb8vtjLKapeMIc-92" value="" style="shape=tableRow;horizontal=0;startSize=0;swimlaneHead=0;swimlaneBody=0;fillColor=none;collapsible=0;dropTarget=0;points=[[0,0.5],[1,0.5]];portConstraint=eastwest;top=0;left=0;right=0;bottom=0;fontSize=16;swimlaneLine=1;swimlaneFillColor=none;" vertex="1" parent="-ewRZKTb8vtjLKapeMIc-73">
          <mxGeometry y="180" width="210" height="35" as="geometry" />
        </mxCell>
        <mxCell id="-ewRZKTb8vtjLKapeMIc-93" value="" style="shape=partialRectangle;connectable=0;fillColor=none;top=0;left=0;bottom=0;right=0;editable=1;overflow=hidden;whiteSpace=wrap;html=1;fontSize=16;swimlaneLine=1;swimlaneFillColor=none;" vertex="1" parent="-ewRZKTb8vtjLKapeMIc-92">
          <mxGeometry width="40" height="35" as="geometry">
            <mxRectangle width="40" height="35" as="alternateBounds" />
          </mxGeometry>
        </mxCell>
        <mxCell id="-ewRZKTb8vtjLKapeMIc-94" value="ship_date" style="shape=partialRectangle;connectable=0;fillColor=none;top=0;left=0;bottom=0;right=0;align=left;spacingLeft=6;overflow=hidden;whiteSpace=wrap;html=1;fontSize=16;swimlaneLine=1;swimlaneFillColor=none;" vertex="1" parent="-ewRZKTb8vtjLKapeMIc-92">
          <mxGeometry x="40" width="170" height="35" as="geometry">
            <mxRectangle width="170" height="35" as="alternateBounds" />
          </mxGeometry>
        </mxCell>
        <mxCell id="-ewRZKTb8vtjLKapeMIc-95" value="" style="shape=tableRow;horizontal=0;startSize=0;swimlaneHead=0;swimlaneBody=0;fillColor=none;collapsible=0;dropTarget=0;points=[[0,0.5],[1,0.5]];portConstraint=eastwest;top=0;left=0;right=0;bottom=0;fontSize=16;swimlaneLine=1;swimlaneFillColor=none;" vertex="1" parent="-ewRZKTb8vtjLKapeMIc-73">
          <mxGeometry y="215" width="210" height="35" as="geometry" />
        </mxCell>
        <mxCell id="-ewRZKTb8vtjLKapeMIc-96" value="" style="shape=partialRectangle;connectable=0;fillColor=none;top=0;left=0;bottom=0;right=0;editable=1;overflow=hidden;whiteSpace=wrap;html=1;fontSize=16;swimlaneLine=1;swimlaneFillColor=none;" vertex="1" parent="-ewRZKTb8vtjLKapeMIc-95">
          <mxGeometry width="40" height="35" as="geometry">
            <mxRectangle width="40" height="35" as="alternateBounds" />
          </mxGeometry>
        </mxCell>
        <mxCell id="-ewRZKTb8vtjLKapeMIc-97" value="due_date" style="shape=partialRectangle;connectable=0;fillColor=none;top=0;left=0;bottom=0;right=0;align=left;spacingLeft=6;overflow=hidden;whiteSpace=wrap;html=1;fontSize=16;swimlaneLine=1;swimlaneFillColor=none;" vertex="1" parent="-ewRZKTb8vtjLKapeMIc-95">
          <mxGeometry x="40" width="170" height="35" as="geometry">
            <mxRectangle width="170" height="35" as="alternateBounds" />
          </mxGeometry>
        </mxCell>
        <mxCell id="-ewRZKTb8vtjLKapeMIc-98" value="" style="shape=tableRow;horizontal=0;startSize=0;swimlaneHead=0;swimlaneBody=0;fillColor=none;collapsible=0;dropTarget=0;points=[[0,0.5],[1,0.5]];portConstraint=eastwest;top=0;left=0;right=0;bottom=0;fontSize=16;swimlaneLine=1;swimlaneFillColor=none;" vertex="1" parent="-ewRZKTb8vtjLKapeMIc-73">
          <mxGeometry y="250" width="210" height="35" as="geometry" />
        </mxCell>
        <mxCell id="-ewRZKTb8vtjLKapeMIc-99" value="" style="shape=partialRectangle;connectable=0;fillColor=none;top=0;left=0;bottom=0;right=0;editable=1;overflow=hidden;whiteSpace=wrap;html=1;fontSize=16;swimlaneLine=1;swimlaneFillColor=none;" vertex="1" parent="-ewRZKTb8vtjLKapeMIc-98">
          <mxGeometry width="40" height="35" as="geometry">
            <mxRectangle width="40" height="35" as="alternateBounds" />
          </mxGeometry>
        </mxCell>
        <mxCell id="-ewRZKTb8vtjLKapeMIc-100" value="sales_amount" style="shape=partialRectangle;connectable=0;fillColor=none;top=0;left=0;bottom=0;right=0;align=left;spacingLeft=6;overflow=hidden;whiteSpace=wrap;html=1;fontSize=16;swimlaneLine=1;swimlaneFillColor=none;" vertex="1" parent="-ewRZKTb8vtjLKapeMIc-98">
          <mxGeometry x="40" width="170" height="35" as="geometry">
            <mxRectangle width="170" height="35" as="alternateBounds" />
          </mxGeometry>
        </mxCell>
        <mxCell id="-ewRZKTb8vtjLKapeMIc-101" value="" style="shape=tableRow;horizontal=0;startSize=0;swimlaneHead=0;swimlaneBody=0;fillColor=none;collapsible=0;dropTarget=0;points=[[0,0.5],[1,0.5]];portConstraint=eastwest;top=0;left=0;right=0;bottom=0;fontSize=16;swimlaneLine=1;swimlaneFillColor=none;" vertex="1" parent="-ewRZKTb8vtjLKapeMIc-73">
          <mxGeometry y="285" width="210" height="35" as="geometry" />
        </mxCell>
        <mxCell id="-ewRZKTb8vtjLKapeMIc-102" value="" style="shape=partialRectangle;connectable=0;fillColor=none;top=0;left=0;bottom=0;right=0;editable=1;overflow=hidden;whiteSpace=wrap;html=1;fontSize=16;swimlaneLine=1;swimlaneFillColor=none;" vertex="1" parent="-ewRZKTb8vtjLKapeMIc-101">
          <mxGeometry width="40" height="35" as="geometry">
            <mxRectangle width="40" height="35" as="alternateBounds" />
          </mxGeometry>
        </mxCell>
        <mxCell id="-ewRZKTb8vtjLKapeMIc-103" value="quantity" style="shape=partialRectangle;connectable=0;fillColor=none;top=0;left=0;bottom=0;right=0;align=left;spacingLeft=6;overflow=hidden;whiteSpace=wrap;html=1;fontSize=16;swimlaneLine=1;swimlaneFillColor=none;" vertex="1" parent="-ewRZKTb8vtjLKapeMIc-101">
          <mxGeometry x="40" width="170" height="35" as="geometry">
            <mxRectangle width="170" height="35" as="alternateBounds" />
          </mxGeometry>
        </mxCell>
        <mxCell id="-ewRZKTb8vtjLKapeMIc-104" value="" style="shape=tableRow;horizontal=0;startSize=0;swimlaneHead=0;swimlaneBody=0;fillColor=none;collapsible=0;dropTarget=0;points=[[0,0.5],[1,0.5]];portConstraint=eastwest;top=0;left=0;right=0;bottom=0;fontSize=16;swimlaneLine=1;swimlaneFillColor=none;" vertex="1" parent="-ewRZKTb8vtjLKapeMIc-73">
          <mxGeometry y="320" width="210" height="35" as="geometry" />
        </mxCell>
        <mxCell id="-ewRZKTb8vtjLKapeMIc-105" value="" style="shape=partialRectangle;connectable=0;fillColor=none;top=0;left=0;bottom=0;right=0;editable=1;overflow=hidden;whiteSpace=wrap;html=1;fontSize=16;swimlaneLine=1;swimlaneFillColor=none;" vertex="1" parent="-ewRZKTb8vtjLKapeMIc-104">
          <mxGeometry width="40" height="35" as="geometry">
            <mxRectangle width="40" height="35" as="alternateBounds" />
          </mxGeometry>
        </mxCell>
        <mxCell id="-ewRZKTb8vtjLKapeMIc-106" value="price" style="shape=partialRectangle;connectable=0;fillColor=none;top=0;left=0;bottom=0;right=0;align=left;spacingLeft=6;overflow=hidden;whiteSpace=wrap;html=1;fontSize=16;swimlaneLine=1;swimlaneFillColor=none;" vertex="1" parent="-ewRZKTb8vtjLKapeMIc-104">
          <mxGeometry x="40" width="170" height="35" as="geometry">
            <mxRectangle width="170" height="35" as="alternateBounds" />
          </mxGeometry>
        </mxCell>
        <mxCell id="-ewRZKTb8vtjLKapeMIc-116" value="" style="edgeStyle=entityRelationEdgeStyle;fontSize=12;html=1;endArrow=ERzeroToMany;startArrow=ERmandOne;rounded=0;exitX=1;exitY=0.5;exitDx=0;exitDy=0;entryX=0;entryY=0.5;entryDx=0;entryDy=0;" edge="1" parent="1" source="-ewRZKTb8vtjLKapeMIc-2" target="-ewRZKTb8vtjLKapeMIc-86">
          <mxGeometry width="100" height="100" relative="1" as="geometry">
            <mxPoint x="240" y="730" as="sourcePoint" />
            <mxPoint x="340" y="630" as="targetPoint" />
          </mxGeometry>
        </mxCell>
        <mxCell id="-ewRZKTb8vtjLKapeMIc-117" value="" style="edgeStyle=entityRelationEdgeStyle;fontSize=12;html=1;endArrow=ERzeroToMany;startArrow=ERzeroToOne;rounded=0;entryX=1;entryY=0.5;entryDx=0;entryDy=0;exitX=0;exitY=0.5;exitDx=0;exitDy=0;" edge="1" parent="1" source="-ewRZKTb8vtjLKapeMIc-33" target="-ewRZKTb8vtjLKapeMIc-83">
          <mxGeometry width="100" height="100" relative="1" as="geometry">
            <mxPoint x="530" y="730" as="sourcePoint" />
            <mxPoint x="630" y="630" as="targetPoint" />
          </mxGeometry>
        </mxCell>
        <mxCell id="-ewRZKTb8vtjLKapeMIc-118" value="&lt;font style=&quot;font-size: 30px;&quot;&gt;&lt;b&gt;Data Mart&lt;/b&gt; (Star Schema)&lt;/font&gt;" style="text;html=1;align=center;verticalAlign=middle;resizable=0;points=[];autosize=1;strokeColor=none;fillColor=none;" vertex="1" parent="1">
          <mxGeometry x="-190" y="10" width="360" height="50" as="geometry" />
        </mxCell>
      </root>
    </mxGraphModel>
  </diagram>
</mxfile>
